<svg width="16" height="16" viewBox="0 0 16 16" fill="none" xmlns="http://www.w3.org/2000/svg">
<path d="M5.99996 3.33337C6.7072 3.33337 7.38548 3.61433 7.88558 4.11442C8.38567 4.61452 8.66663 5.2928 8.66663 6.00004C8.66663 6.70728 8.38567 7.38556 7.88558 7.88566C7.38548 8.38576 6.7072 8.66671 5.99996 8.66671C5.29272 8.66671 4.61444 8.38576 4.11434 7.88566C3.61424 7.38556 3.33329 6.70728 3.33329 6.00004C3.33329 5.2928 3.61424 4.61452 4.11434 4.11442C4.61444 3.61433 5.29272 3.33337 5.99996 3.33337ZM5.99996 10C7.77996 10 11.3333 10.8934 11.3333 12.6667V14H0.666626V12.6667C0.666626 10.8934 4.21996 10 5.99996 10ZM11.1733 3.57337C12.52 5.04004 12.52 7.07337 11.1733 8.42004L10.0533 7.29337C10.6133 6.50671 10.6133 5.48671 10.0533 4.70004L11.1733 3.57337ZM13.38 1.33337C16 4.03337 15.98 8.07337 13.38 10.6667L12.2933 9.58004C14.14 7.46004 14.14 4.43337 12.2933 2.42004L13.38 1.33337Z" fill="black"/>
</svg>
