<svg width="16" height="16" viewBox="0 0 16 16" fill="none" xmlns="http://www.w3.org/2000/svg">
<path d="M11.9334 11.5934C11.76 11.06 11.26 10.6667 10.6667 10.6667H10V8.66671C10 8.4899 9.9298 8.32033 9.80478 8.1953C9.67975 8.07028 9.51018 8.00004 9.33337 8.00004H5.33337V6.66671H6.66671C6.84352 6.66671 7.01309 6.59647 7.13811 6.47144C7.26314 6.34642 7.33337 6.17685 7.33337 6.00004V4.66671H8.66671C9.02033 4.66671 9.35947 4.52623 9.60952 4.27618C9.85956 4.02613 10 3.687 10 3.33337V3.06004C11.9534 3.84671 13.3334 5.76004 13.3334 8.00004C13.3334 9.38671 12.8 10.6467 11.9334 11.5934ZM7.33337 13.2867C4.70004 12.96 2.66671 10.72 2.66671 8.00004C2.66671 7.58671 2.72004 7.18671 2.80671 6.80671L6.00004 10V10.6667C6.00004 11.0203 6.14052 11.3595 6.39056 11.6095C6.64061 11.8596 6.97975 12 7.33337 12M8.00004 1.33337C7.12456 1.33337 6.25765 1.50581 5.44882 1.84084C4.63998 2.17588 3.90505 2.66694 3.286 3.286C2.03575 4.53624 1.33337 6.23193 1.33337 8.00004C1.33337 9.76815 2.03575 11.4638 3.286 12.7141C3.90505 13.3331 4.63998 13.8242 5.44882 14.1592C6.25765 14.4943 7.12456 14.6667 8.00004 14.6667C9.76815 14.6667 11.4638 13.9643 12.7141 12.7141C13.9643 11.4638 14.6667 9.76815 14.6667 8.00004C14.6667 7.12456 14.4943 6.25765 14.1592 5.44882C13.8242 4.63998 13.3331 3.90505 12.7141 3.286C12.095 2.66694 11.3601 2.17588 10.5513 1.84084C9.74243 1.50581 8.87552 1.33337 8.00004 1.33337Z" fill="black"/>
</svg>
