<svg width="16" height="16" viewBox="0 0 16 16" fill="none" xmlns="http://www.w3.org/2000/svg">
<path d="M1.99996 9.33333L2.33329 9.38L5.37996 6.33333C5.25996 5.9 5.37329 5.40667 5.72663 5.06C6.24663 4.53333 7.08663 4.53333 7.60663 5.06C7.95996 5.40667 8.07329 5.9 7.95329 6.33333L9.66663 8.04667L9.99996 8C10.12 8 10.2333 8 10.3333 8.04667L12.7133 5.66667C12.6666 5.56667 12.6666 5.45333 12.6666 5.33333C12.6666 4.97971 12.8071 4.64057 13.0572 4.39052C13.3072 4.14048 13.6463 4 14 4C14.3536 4 14.6927 4.14048 14.9428 4.39052C15.1928 4.64057 15.3333 4.97971 15.3333 5.33333C15.3333 5.68696 15.1928 6.02609 14.9428 6.27614C14.6927 6.52619 14.3536 6.66667 14 6.66667C13.88 6.66667 13.7666 6.66667 13.6666 6.62L11.2866 9C11.3333 9.1 11.3333 9.21333 11.3333 9.33333C11.3333 9.68696 11.1928 10.0261 10.9428 10.2761C10.6927 10.5262 10.3536 10.6667 9.99996 10.6667C9.64634 10.6667 9.3072 10.5262 9.05715 10.2761C8.8071 10.0261 8.66663 9.68696 8.66663 9.33333L8.71329 9L6.99996 7.28667C6.78663 7.33333 6.54663 7.33333 6.33329 7.28667L3.28663 10.3333L3.33329 10.6667C3.33329 11.0203 3.19282 11.3594 2.94277 11.6095C2.69272 11.8595 2.35358 12 1.99996 12C1.64634 12 1.3072 11.8595 1.05715 11.6095C0.807102 11.3594 0.666626 11.0203 0.666626 10.6667C0.666626 10.313 0.807102 9.97391 1.05715 9.72386C1.3072 9.47381 1.64634 9.33333 1.99996 9.33333Z" fill="black"/>
</svg>
